<?xml version="1.0" encoding="UTF-8" standalone="no"?>
<!-- Created with Inkscape (http://www.inkscape.org/) -->

<svg
   version="1.1"
   id="svg2"
   width="32.000217"
   height="31.999985"
   viewBox="0 0 32.000218 31.999985"
   sodipodi:docname="codepen.svg"
   inkscape:version="1.1 (c68e22c387, 2021-05-23)"
   xmlns:inkscape="http://www.inkscape.org/namespaces/inkscape"
   xmlns:sodipodi="http://sodipodi.sourceforge.net/DTD/sodipodi-0.dtd"
   xmlns="http://www.w3.org/2000/svg"
   xmlns:svg="http://www.w3.org/2000/svg">
  <defs
     id="defs6" />
  <sodipodi:namedview
     id="namedview4"
     pagecolor="#ffffff"
     bordercolor="#999999"
     borderopacity="1"
     inkscape:pageshadow="0"
     inkscape:pageopacity="0"
     inkscape:pagecheckerboard="0"
     showgrid="false"
     inkscape:zoom="9.0133333"
     inkscape:cx="15.255178"
     inkscape:cy="21.412722"
     inkscape:window-width="1258"
     inkscape:window-height="887"
     inkscape:window-x="2421"
     inkscape:window-y="227"
     inkscape:window-maximized="0"
     inkscape:current-layer="g8" />
  <g
     inkscape:groupmode="layer"
     inkscape:label="Image"
     id="g8"
     transform="translate(-1.057831,-0.93433047)">
    <path
       style="fill:#8892b0;fill-opacity:1;stroke:#8892b0;stroke-width:0.0777273"
       d="M 15.250351,32.81861 C 14.408364,32.716064 13.739395,32.599087 13.229057,32.465164 9.8742523,31.584795 7.0488009,29.846955 4.9098791,27.348319 4.6537598,27.049127 4.4237667,26.786848 4.3987835,26.765476 4.3484462,26.722419 3.410661,25.340397 3.2650335,25.094661 2.9585264,24.577455 2.1984731,22.974106 1.9940935,22.413585 1.7169964,21.653636 1.368619,20.323678 1.2103698,19.42166 c -0.1494207,-0.851696 -0.1494207,-4.121893 0,-4.97359 0.298232,-1.699921 0.768236,-3.142762 1.4935676,-4.5850288 C 3.2689195,8.7396175 3.2366918,8.7951736 3.8447052,7.8964938 4.3214761,7.1917983 4.4216696,7.0635026 5.0661437,6.3324673 7.0852632,4.0421538 9.8659438,2.3144922 12.840348,1.5022849 c 3.051027,-0.83313044 6.748153,-0.67321825 9.678883,0.418642 0.685249,0.2552931 1.763063,0.7460044 2.116926,0.9638006 0.159493,0.098165 0.305702,0.178483 0.324905,0.178483 0.111647,0 1.923184,1.2838077 2.450804,1.736846 0.537955,0.4619117 1.75862,1.7327803 2.103953,2.1904843 0.192302,0.2548795 0.370362,0.4809026 0.395685,0.5022732 0.06373,0.053779 0.689493,1.0290629 1.022175,1.593104 0.875011,1.483523 1.620298,3.60263 1.847398,5.252785 0.03879,0.281782 0.106882,0.7364 0.151334,1.010261 0.186391,1.148323 0.06538,3.156904 -0.30377,5.042226 -0.08788,0.448799 -0.09979,0.48978 -0.463657,1.594977 -0.764109,2.320875 -1.987487,4.319908 -3.72266,6.082928 -0.865611,0.879504 -1.08993,1.077671 -1.885621,1.665775 -2.874228,2.12438 -6.118951,3.190347 -9.618639,3.15995 -0.628934,-0.0054 -1.388406,-0.03976 -1.687713,-0.07621 z m 3.122224,-6.61076 c 0.591715,-0.39218 1.390701,-0.923028 1.775525,-1.179665 0.384822,-0.256635 1.241928,-0.826958 1.904679,-1.267384 0.662752,-0.440426 1.257479,-0.837216 1.321615,-0.881753 0.06413,-0.04454 0.396484,-0.266165 0.738549,-0.492503 1.657863,-1.096974 2.18901,-1.453546 2.328638,-1.563282 0.08352,-0.06564 0.176875,-0.119349 0.207449,-0.119349 0.03057,0 0.128411,-0.117782 0.217414,-0.261738 0.157198,-0.254253 0.161827,-0.354846 0.161827,-3.517873 V 13.66817 l -0.197159,-0.290034 c -0.108438,-0.159518 -0.245456,-0.290032 -0.30449,-0.290032 -0.05903,0 -0.118993,-0.02634 -0.133246,-0.05853 -0.02613,-0.05898 -2.753648,-1.896372 -2.900957,-1.954215 -0.04353,-0.01708 -0.09665,-0.05284 -0.118025,-0.0794 -0.02138,-0.0266 -0.283758,-0.204171 -0.583065,-0.394639 C 22.492021,10.410852 22.229643,10.236033 22.208264,10.212835 22.149549,10.14912 19.385417,8.3134827 19.294349,8.277724 19.250814,8.2606324 19.1977,8.2256591 19.176323,8.2000111 19.154951,8.1743488 18.75263,7.8927241 18.282291,7.57416 16.936635,6.6627376 17.299167,6.5483279 13.496506,9.0844835 c -1.729149,1.1532395 -3.155565,2.1236725 -3.169818,2.1565175 -0.01425,0.03284 -0.05544,0.05973 -0.09153,0.05973 -0.124427,0 -2.7594887,1.795361 -2.9728067,2.025481 l -0.2137909,0.230631 v 3.378034 3.378037 l 0.213791,0.229263 c 0.2107064,0.225959 2.8550626,2.026847 2.9761416,2.026847 0.03425,0 0.07394,0.02623 0.08819,0.05829 0.02721,0.06119 3.919296,2.677779 4.063147,2.731584 0.0457,0.01711 0.100586,0.05207 0.121966,0.07772 0.06736,0.08081 2.054515,1.38649 2.176778,1.430278 0.385999,0.138239 0.618208,0.04737 1.683995,-0.65902 z"
       id="path970" />
    <path
       style="fill:#8892b0;fill-opacity:1;stroke:#8892b0;stroke-width:0.0777273"
       d="m 15.950028,18.059131 c -0.555856,-0.371447 -1.190984,-0.798274 -1.411396,-0.948504 l -0.400749,-0.273145 1.42844,-0.955977 c 0.895978,-0.599628 1.465556,-0.934357 1.52801,-0.897981 0.668328,0.389274 2.776548,1.853367 2.728617,1.894942 -0.121495,0.105376 -1.358923,0.934548 -1.394693,0.934548 -0.0198,0 -0.218164,0.132787 -0.44082,0.295082 -0.36437,0.265596 -0.97352,0.646056 -1.011769,0.63193 -0.0082,-0.003 -0.469784,-0.309449 -1.02564,-0.680895 z"
       id="path1009" />
    <path
       style="fill:#8892b0;fill-opacity:1;stroke:#8892b0;stroke-width:0.0777273"
       d="m 12.874122,22.131449 c -1.771658,-1.180977 -3.2324552,-2.156835 -3.2462142,-2.168572 -0.025496,-0.02175 1.0495792,-0.748639 1.1911462,-0.805364 0.04276,-0.01713 0.09523,-0.05275 0.116612,-0.07913 0.02138,-0.0264 0.353384,-0.25526 0.737782,-0.508611 0.650879,-0.428975 0.931147,-0.529667 1.043291,-0.374826 0.02523,0.03483 0.806767,0.569528 1.736756,1.188216 l 1.690889,1.12489 v 1.885313 c 0,1.036923 -0.01103,1.885315 -0.02454,1.885315 -0.01349,0 -1.47407,-0.966257 -3.245729,-2.147233 z"
       id="path1048" />
    <path
       style="fill:#8892b0;fill-opacity:1;stroke:#8892b0;stroke-width:0.0777273"
       d="m 24.579396,17.831568 c -0.299308,-0.196395 -0.724,-0.479066 -0.943761,-0.62816 l -0.399569,-0.271078 0.943761,-0.635942 0.943761,-0.635939 0.02252,0.613965 c 0.01238,0.337679 0.01238,0.906525 0,1.264099 l -0.02252,0.650136 z"
       id="path1126" />
    <path
       style="fill:#8892b0;fill-opacity:1;stroke:#8892b0;stroke-width:0.0777273"
       d="m 17.932452,22.382715 v -1.897153 l 0.835725,-0.566718 c 0.459652,-0.311695 1.1156,-0.749955 1.457664,-0.973915 0.342066,-0.223959 0.65692,-0.437385 0.699679,-0.474282 0.04276,-0.0369 0.130217,-0.09105 0.194355,-0.120353 0.06413,-0.0293 0.189016,-0.106294 0.277509,-0.171104 0.149735,-0.109665 0.200958,-0.09245 0.738548,0.248196 0.31771,0.20132 0.595147,0.384991 0.616526,0.408162 0.02139,0.02318 0.248774,0.179065 0.505322,0.346437 0.923141,0.602251 1.056805,0.693723 1.088405,0.744833 0.02554,0.0413 -2.902338,2.058093 -3.441443,2.370564 -0.07408,0.04294 -0.773164,0.50657 -1.553498,1.030283 l -1.418792,0.952204 z"
       id="path1165" />
    <path
       style="fill:#8892b0;fill-opacity:1;stroke:#8892b0;stroke-width:0.0777273"
       d="m 21.329712,15.650901 c -0.10752,-0.08454 -0.230788,-0.153714 -0.273928,-0.153714 -0.04314,0 -0.0901,-0.02655 -0.104351,-0.05898 -0.01425,-0.03244 -0.699355,-0.507439 -1.522449,-1.055554 L 17.932456,13.386076 V 11.490124 9.5941779 l 0.563628,0.3700628 c 0.309997,0.2035353 1.560672,1.0365343 2.779279,1.8511103 1.218606,0.814576 2.355583,1.572716 2.526617,1.684757 0.688016,0.450703 0.707295,0.357739 -0.198112,0.955282 -0.446896,0.294937 -0.824197,0.56257 -0.838447,0.594738 -0.01426,0.03218 -0.06203,0.05848 -0.106197,0.05848 -0.04415,0 -0.242398,0.117613 -0.440539,0.261361 -0.599719,0.435088 -0.666182,0.45609 -0.888967,0.280915 z"
       id="path1204" />
    <path
       style="fill:#8892b0;fill-opacity:1;stroke:#8892b0;stroke-width:0.0777273"
       d="m 11.760713,15.338987 c -0.378302,-0.254925 -0.703702,-0.463499 -0.723115,-0.463499 -0.01941,0 -0.08142,-0.04371 -0.137804,-0.09714 -0.05638,-0.05345 -0.371737,-0.266082 -0.70079,-0.472564 -0.3290546,-0.206485 -0.5865361,-0.386139 -0.5721801,-0.399237 0.062157,-0.0567 6.2587421,-4.1810306 6.3815111,-4.2474099 0.127857,-0.069123 0.13604,0.040066 0.135892,1.8136999 l -1.56e-4,1.88726 -1.651862,1.096392 c -0.908524,0.603015 -1.740019,1.152553 -1.84777,1.221195 -0.190964,0.121652 -0.213261,0.113108 -0.883726,-0.338697 z"
       id="path1243" />
    <path
       style="fill:#8892b0;fill-opacity:1;stroke:#8892b0;stroke-width:0.0777273"
       d="m 8.8366328,16.933112 v -1.293177 l 0.2915322,0.177656 c 0.4206399,0.256332 1.579552,1.059595 1.597728,1.107411 0.01229,0.03234 -1.3840863,1.001331 -1.7920823,1.243589 -0.076165,0.04521 -0.097179,-0.22197 -0.097178,-1.235479 z"
       id="path1282" />
  </g>
</svg>
