<?xml version="1.0" encoding="UTF-8" standalone="no"?>
<svg
   width="29.999947"
   height="22.997929"
   preserveAspectRatio="xMidYMid meet"
   version="1.1"
   viewBox="0 0 29.999947 22.997928"
   id="svg35"
   sodipodi:docname="freecodecamp.svg"
   inkscape:version="1.1 (c68e22c387, 2021-05-23)"
   xmlns:inkscape="http://www.inkscape.org/namespaces/inkscape"
   xmlns:sodipodi="http://sodipodi.sourceforge.net/DTD/sodipodi-0.dtd"
   xmlns:xlink="http://www.w3.org/1999/xlink"
   xmlns="http://www.w3.org/2000/svg"
   xmlns:svg="http://www.w3.org/2000/svg">
  <sodipodi:namedview
     id="namedview37"
     pagecolor="#ffffff"
     bordercolor="#999999"
     borderopacity="1"
     inkscape:pageshadow="0"
     inkscape:pageopacity="0"
     inkscape:pagecheckerboard="0"
     showgrid="false"
     inkscape:zoom="5.5867769"
     inkscape:cx="28.818047"
     inkscape:cy="33.113905"
     inkscape:window-width="1248"
     inkscape:window-height="887"
     inkscape:window-x="2404"
     inkscape:window-y="243"
     inkscape:window-maximized="0"
     inkscape:current-layer="svg35" />
  <defs
     id="defs5">
    <path
       id="f2jrM5bTZu"
       d="m 136.83,9.96 c 2.35,2.34 4.7,5.71 4.71,9.1 0.01,5.86 -6.87,13.81 -19.59,26.87 C 68.91,97 42.23,159.54 42.41,234.97 c 0.2,83.45 28.26,150.47 82.8,202.41 11.47,10.25 16.18,18.31 16.2,25.21 0,3.38 -2.33,6.9 -4.67,10.29 -2.2,2.35 -6.89,4.71 -10.27,4.71 C 113.85,477.62 96.19,462.7 73.13,433.67 28.23,378.64 7.93,317.87 6.79,235.05 5.74,152.19 31.72,96 82.57,37.99 c 18.3,-20.73 33.56,-31.5 43.97,-31.52 3.38,-0.01 6.9,1.15 10.29,3.49 z" />
    <path
       id="fePvRWSP7"
       d="m 415.42,249.9 c -19.93,-5.09 61.85,-101.71 -83.5,-217.39 0,0 19.07,60.59 -77.09,195.8 -96.21,135.16 42.78,215.68 42.78,215.68 0,0 -65.23,-34.76 10.6,-158.52 13.57,-22.45 31.33,-42.78 53.38,-88.54 0,0 19.52,27.55 9.33,87.28 -15.24,90.26 66.09,64.43 67.35,65.69 28.41,33.45 -23.53,92.24 -26.69,94.09 -3.15,1.8 148.33,-91.12 40.71,-230.96 -7.37,7.37 -16.95,41.97 -36.87,36.87 z" />
    <path
       id="a1dIEIC07z"
       d="m 575.26,9.9 c -2.35,2.34 -4.7,5.71 -4.71,9.1 -0.01,5.86 6.87,13.81 19.59,26.87 53.04,51.06 79.72,113.61 79.54,189.04 -0.2,83.45 -28.26,150.47 -82.8,202.41 -11.47,10.25 -16.18,18.31 -16.2,25.21 0,3.38 2.33,6.9 4.67,10.29 2.2,2.35 6.89,4.7 10.27,4.71 12.62,0.03 30.28,-14.89 53.34,-43.92 44.9,-55.03 65.2,-115.8 66.34,-198.62 C 706.35,152.13 680.37,95.94 629.52,37.93 611.22,17.2 595.96,6.43 585.55,6.41 582.17,6.4 578.65,7.56 575.26,9.9 Z" />
  </defs>
  <g
     id="g33"
     transform="matrix(0.04288334,0,0,0.04870584,-0.26842571,-0.2878484)"
     style="fill:#8892b0;fill-opacity:1">
    <g
       id="g31"
       style="fill:#8892b0;fill-opacity:1">
      <g
         id="g13"
         style="fill:#8892b0;fill-opacity:1">
        <use
           fill="#0a0a23"
           fill-opacity="1"
           opacity="1"
           xlink:href="#f2jrM5bTZu"
           id="use7"
           x="0"
           y="0"
           width="100%"
           height="100%"
           style="fill:#8892b0;fill-opacity:1" />
        <g
           id="g11"
           style="fill:#8892b0;fill-opacity:1">
          <use
             fill-opacity="0"
             stroke="#000000"
             stroke-opacity="0"
             stroke-width="1"
             opacity="1"
             xlink:href="#f2jrM5bTZu"
             id="use9"
             x="0"
             y="0"
             width="100%"
             height="100%"
             style="fill:#8892b0;fill-opacity:1" />
        </g>
      </g>
      <g
         id="g21"
         style="fill:#8892b0;fill-opacity:1">
        <use
           fill="#0a0a23"
           fill-opacity="1"
           opacity="1"
           xlink:href="#fePvRWSP7"
           id="use15"
           x="0"
           y="0"
           width="100%"
           height="100%"
           style="fill:#8892b0;fill-opacity:1" />
        <g
           id="g19"
           style="fill:#8892b0;fill-opacity:1">
          <use
             fill-opacity="0"
             stroke="#000000"
             stroke-opacity="0"
             stroke-width="1"
             opacity="1"
             xlink:href="#fePvRWSP7"
             id="use17"
             x="0"
             y="0"
             width="100%"
             height="100%"
             style="fill:#8892b0;fill-opacity:1" />
        </g>
      </g>
      <g
         id="g29"
         style="fill:#8892b0;fill-opacity:1">
        <use
           fill="#0a0a23"
           fill-opacity="1"
           opacity="1"
           xlink:href="#a1dIEIC07z"
           id="use23"
           x="0"
           y="0"
           width="100%"
           height="100%"
           style="fill:#8892b0;fill-opacity:1" />
        <g
           id="g27"
           style="fill:#8892b0;fill-opacity:1">
          <use
             fill-opacity="0"
             stroke="#000000"
             stroke-opacity="0"
             stroke-width="1"
             opacity="1"
             xlink:href="#a1dIEIC07z"
             id="use25"
             x="0"
             y="0"
             width="100%"
             height="100%"
             style="fill:#8892b0;fill-opacity:1" />
        </g>
      </g>
    </g>
  </g>
</svg>
