<?xml version="1.0" encoding="UTF-8" standalone="no"?>
<!-- Created with Inkscape (http://www.inkscape.org/) -->

<svg
   version="1.1"
   id="svg2"
   width="29.999954"
   height="30.001108"
   viewBox="0 0 29.999954 30.001109"
   sodipodi:docname="github-hover.svg"
   inkscape:version="1.1 (c68e22c387, 2021-05-23)"
   xmlns:inkscape="http://www.inkscape.org/namespaces/inkscape"
   xmlns:sodipodi="http://sodipodi.sourceforge.net/DTD/sodipodi-0.dtd"
   xmlns="http://www.w3.org/2000/svg"
   xmlns:svg="http://www.w3.org/2000/svg">
  <defs
     id="defs6" />
  <sodipodi:namedview
     id="namedview4"
     pagecolor="#ffffff"
     bordercolor="#999999"
     borderopacity="1"
     inkscape:pageshadow="0"
     inkscape:pageopacity="0"
     inkscape:pagecheckerboard="0"
     showgrid="false"
     inkscape:zoom="8"
     inkscape:cx="-8.875"
     inkscape:cy="32"
     inkscape:window-width="1258"
     inkscape:window-height="887"
     inkscape:window-x="2451"
     inkscape:window-y="71"
     inkscape:window-maximized="0"
     inkscape:current-layer="g8" />
  <g
     inkscape:groupmode="layer"
     inkscape:label="Image"
     id="g8"
     transform="translate(0.56309447,6.3648224)">
    <path
       style="fill:#b9314f;fill-opacity:1;stroke:#8892b0;stroke-width:0.105594;stroke-opacity:1"
       d="M 12.666468,23.476947 C 8.8156045,22.776025 6.3870321,21.59001 4.0112472,19.250091 1.5252579,16.80163 0.18529193,14.091829 -0.4052088,10.318732 -0.67637851,8.5860544 -0.4106463,6.0885406 0.26811954,3.9919184 1.4939548,0.2051067 4.5019711,-3.1700934 8.1672125,-4.8714033 10.152503,-5.7929232 12.434895,-6.3155012 14.459148,-6.312008 c 2.133061,0.00368 4.389127,0.5285674 6.58042,1.5309727 1.121905,0.5132148 2.878475,1.7972912 4.014551,2.9346888 1.10797,1.10926298 2.285648,2.68460568 2.722984,3.6424541 0.09257,0.2027489 0.308002,0.6767074 0.478734,1.053241 0.295405,0.6514847 0.681223,1.9393623 0.993912,3.3177087 0.09496,0.4186136 0.1401,1.2897158 0.133703,2.5804397 -0.0081,1.628438 -0.04795,2.1042 -0.242776,2.896413 -0.419384,1.705323 -0.569147,2.126781 -1.366066,3.844329 -0.151309,0.326111 -0.554615,0.965783 -1.388751,2.202666 -0.57169,0.847719 -2.489018,2.599196 -3.715165,3.393802 -2.091698,1.355525 -3.68284,1.945613 -6.469961,2.399451 -0.823577,0.134107 -2.779798,0.130115 -3.534265,-0.0072 z m -1.535041,-2.511856 c 0.188729,-0.187763 0.211731,-0.351078 0.211731,-1.503369 v -1.292724 l -1.296845,0.0025 C 8.9093715,18.173685 8.6957362,18.145398 8.3136801,17.942053 7.5533923,17.537396 7.2086832,17.165308 6.7807864,16.287412 6.3337051,15.370153 6.0392398,14.995867 5.3353295,14.450138 5.0878699,14.258288 4.885404,14.057906 4.885404,14.004846 c 0,-0.05307 0.2130965,-0.09647 0.4735506,-0.09647 0.6187408,0 1.2783266,0.36691 1.7275846,0.961013 0.1916747,0.253475 0.4664056,0.613369 0.610512,0.799767 0.4507099,0.582987 1.1202033,0.898689 1.932648,0.911347 0.3892588,0.0061 0.9253858,-0.05138 1.1913958,-0.127663 0.462964,-0.132756 0.491537,-0.164164 0.667996,-0.734293 0.101392,-0.327584 0.306953,-0.755532 0.456807,-0.950997 0.305194,-0.398088 0.223825,-0.538633 -0.313558,-0.541589 C 11.198266,14.223582 9.7975845,13.829563 9.1817306,13.536614 7.4061446,12.692001 6.4866453,11.271102 6.245852,8.9998085 6.056418,7.2129748 6.4404141,5.607802 7.2698682,4.7192239 7.5060666,4.4661911 7.5233761,4.4002383 7.4080884,4.192604 7.2223819,3.8581491 7.2520838,2.066298 7.4521759,1.5327905 l 0.1580095,-0.421296 0.5715308,0.010613 c 0.5722488,0.010625 1.8228218,0.5078064 2.5575598,1.0167892 0.332505,0.2303392 0.575101,0.2211472 1.92719,-0.073024 0.925756,-0.2014139 2.89719,-0.1812736 3.916998,0.040013 1.086531,0.2357661 1.424999,0.253112 1.617033,0.08287 0.10047,-0.089067 0.492324,-0.3115009 0.87079,-0.4942945 0.378468,-0.1827923 0.769873,-0.3762873 0.869792,-0.4299879 0.09991,-0.053701 0.440422,-0.1278929 0.756677,-0.1648728 0.696378,-0.081427 0.749361,-0.015444 0.933414,1.1623899 0.09597,0.6141335 0.09497,0.9511734 -0.0044,1.4877697 l -0.128487,0.6937622 0.426479,0.6353949 c 0.547584,0.815826 0.757245,1.4916812 0.824942,2.659255 0.145759,2.5139298 -0.77781,4.5576398 -2.514622,5.5644518 -0.755864,0.438166 -2.288396,0.91971 -2.938537,0.923332 -0.551476,0.0031 -0.615171,0.144372 -0.267133,0.592609 0.494874,0.637347 0.559784,1.052604 0.559784,3.581193 0,2.686927 0.02525,2.775974 0.78706,2.775974 0.93822,0 2.953488,-1.038883 4.600651,-2.371664 2.15587,-1.744352 3.801203,-4.436261 4.440803,-7.265469 0.791698,-3.5021517 0.142183,-7.133035 -1.814297,-10.1419931 -1.21644,-1.87082336 -2.958711,-3.4534936 -4.930639,-4.478973 -1.172851,-0.6099284 -1.819211,-0.8527434 -3.189453,-1.1981678 -0.984836,-0.2482669 -1.322822,-0.2810874 -2.964214,-0.2878412 -1.21398,-0.005 -2.035108,0.040051 -2.381959,0.1306817 -0.291128,0.076068 -0.719881,0.1875386 -0.952783,0.2477132 C 8.7936526,-3.5723035 6.7946445,-2.4213638 5.0014879,-0.63015842 3.265437,1.1040032 2.0420661,3.3844843 1.485028,5.9248634 1.1299994,7.5439703 1.1523668,9.9339019 1.5375591,11.538586 c 0.1529615,0.637211 0.4533249,1.585128 0.6674771,2.106482 0.3732436,0.908666 1.2573953,2.515387 1.5457406,2.808994 0.075667,0.07705 0.2091266,0.243259 0.2965848,0.369366 0.2761847,0.398233 1.3974574,1.544214 2.0025481,2.046679 1.0453138,0.868022 2.6518002,1.783704 3.9169992,2.232654 0.3820021,0.135552 0.9583781,0.06741 1.1645121,-0.13767 z"
       id="path1007" />
    <path
       style="fill:#b9314f;fill-opacity:1;stroke:#8892b0;stroke-width:0.105594;stroke-opacity:1"
       d="M 12.071034,23.31208 C 8.7172006,22.635908 6.2917401,21.396389 4.0897774,19.233307 1.9910173,17.171604 0.77307954,15.031439 -0.00658455,12.035172 -0.82900869,8.8745743 -0.41985819,5.2592794 1.1097993,2.1707018 3.3094365,-2.2706531 7.4821066,-5.311942 12.454739,-6.0981603 c 0.95638,-0.1512119 3.074647,-0.1503688 4.022863,0.00162 3.442917,0.5517958 6.125776,1.9212252 8.57505,4.3770204 1.998158,2.00347691 3.085057,3.919257 3.882137,6.8426987 0.272952,1.0011042 0.323882,1.4037252 0.374727,2.9624009 0.0664,2.0353933 -0.0362,2.9870523 -0.491861,4.5622153 -0.616961,2.132781 -1.952859,4.557077 -3.266018,5.926951 -3.010752,3.140779 -6.462392,4.736528 -10.622252,4.910837 -1.4793,0.06197 -1.781334,0.04366 -2.858351,-0.173485 z m -0.921476,-2.301307 c 0.16814,-0.151386 0.1936,-0.349704 0.1936,-1.508041 v -1.333734 l -1.224262,-0.01015 C 9.0210666,18.149779 8.8354308,18.119916 8.3213551,17.869686 7.642658,17.539326 7.2861551,17.135184 6.6719887,15.99992 6.352167,15.408741 6.026961,14.990165 5.5776386,14.591369 4.9188172,14.006632 4.9222835,13.966067 5.6264511,14.019941 c 0.4943163,0.03783 1.1188345,0.508479 1.7326697,1.3058 0.7972972,1.035625 1.2634872,1.278482 2.4489918,1.275775 1.1448424,-0.0026 1.4642524,-0.147655 1.6952694,-0.769805 0.100503,-0.270682 0.300332,-0.697304 0.444051,-0.948048 0.143717,-0.25074 0.231282,-0.485764 0.194589,-0.52227 -0.03669,-0.03651 -0.553016,-0.174304 -1.147381,-0.306218 C 8.3303532,13.463865 6.9136415,12.138443 6.4278965,9.7827006 6.030191,7.8539325 6.2932532,6.1610198 7.1794181,4.9463675 7.5288135,4.4674558 7.5354079,4.4398617 7.4145584,3.9623782 7.2726238,3.4015826 7.3477264,1.9329632 7.5441123,1.4289217 7.6700075,1.1058057 7.671535,1.1052857 8.23602,1.1933537 c 0.6893446,0.1075483 1.5081319,0.4192398 2.182406,0.8307881 0.578619,0.3531639 0.853911,0.3726648 2.036308,0.1442487 1.082202,-0.2090601 3.040113,-0.2087364 4.128727,6.87e-4 1.106169,0.2127978 1.49466,0.2055314 1.836291,-0.034344 0.768821,-0.5398276 1.658469,-0.888752 2.291315,-0.898664 l 0.634067,-0.00993 0.140154,0.5266205 c 0.09604,0.360854 0.121937,0.8869632 0.08228,1.6713839 -0.05071,1.0031792 -0.03358,1.1790343 0.138519,1.421874 0.347646,0.4905276 0.745277,1.353439 0.864212,1.8754491 0.168148,0.7380064 0.137446,2.5060401 -0.05638,3.2465733 -0.406404,1.5527237 -1.335102,2.7902237 -2.552231,3.4008787 -0.747556,0.375062 -1.793806,0.706152 -2.557656,0.809384 -0.30562,0.04131 -0.584057,0.120787 -0.618748,0.176632 -0.03469,0.05585 0.05243,0.276535 0.193593,0.490424 0.442474,0.670404 0.499483,1.019497 0.568416,3.480725 0.03672,1.311058 0.110026,2.49695 0.162902,2.635316 0.0912,0.23865 0.132705,0.248902 0.808013,0.199554 1.777239,-0.129872 4.910656,-2.278795 6.587802,-4.517973 1.186455,-1.58405 2.143205,-3.793204 2.480285,-5.727024 0.214342,-1.2296827 0.212038,-3.3293652 -0.005,-4.5865943 -0.973155,-5.6361319 -5.613446,-10.0995752 -11.289942,-10.85961 -0.496215,-0.066439 -1.544433,-0.092127 -2.456899,-0.060207 -1.740026,0.060863 -2.954041,0.3317855 -4.6085917,1.0284551 -3.9148093,1.648381 -6.8164717,5.1808881 -7.7970522,9.4921953 -0.2712941,1.1928002 -0.2475316,4.2607499 0.0427,5.5124129 0.9744874,4.202652 3.5138956,7.381299 7.3714016,9.226977 1.1846763,0.566827 1.9330943,0.67753 2.3066523,0.341191 z"
       id="path1083" />
    <path
       style="fill:#8892b0;fill-opacity:1;stroke:#8892b0;stroke-width:0.0298663;stroke-opacity:1"
       d="m 60.764342,42.078548 c 1.67e-4,-0.09832 0.0057,-0.134922 0.01249,-0.08139 0.0066,0.05355 0.0066,0.133972 -3.04e-4,0.178739 -0.0068,0.04476 -0.01232,9.56e-4 -0.01214,-0.09736 z"
       id="path1161" />
    <path
       style="fill:#8892b0;fill-opacity:1;stroke:#8892b0;stroke-width:0.0298663;stroke-opacity:1"
       d="m 60.762614,42.078548 c 3.32e-4,-0.06554 0.0064,-0.08883 0.0137,-0.05179 0.0071,0.03706 0.0069,0.09068 -6.06e-4,0.119149 -0.0075,0.02849 -0.01336,-0.0019 -0.01301,-0.06737 z"
       id="path1200" />
    <path
       style="fill:#8892b0;fill-opacity:1;stroke:#8892b0;stroke-width:0.0298663;stroke-opacity:1"
       d="m 60.705245,41.467856 c 0,-0.122881 0.0052,-0.173151 0.01179,-0.111721 0.0064,0.06145 0.0064,0.161976 0,0.223424 -0.0064,0.06145 -0.01179,0.01123 -0.01179,-0.111722 z"
       id="path1239" />
    <path
       style="fill:#8892b0;fill-opacity:1;stroke:#8892b0;stroke-width:0.0298663;stroke-opacity:1"
       d="m 60.796437,41.512541 c 5.9e-5,-0.196611 0.0049,-0.273166 0.01075,-0.170129 0.0059,0.103048 0.0059,0.26391 -1.07e-4,0.357478 -0.0059,0.09356 -0.01075,0.0093 -0.01058,-0.187355 z"
       id="path1278" />
    <path
       style="fill:#8892b0;fill-opacity:1;stroke:#8892b0;stroke-width:0.0298663;stroke-opacity:1"
       d="m 60.794831,41.512541 c 1.34e-4,-0.114692 0.0056,-0.157967 0.01197,-0.09615 0.0064,0.06181 0.0064,0.155653 -2.41e-4,0.208528 -0.0066,0.05288 -0.01197,0.0022 -0.0118,-0.112378 z"
       id="path1317" />
    <path
       style="fill:#8892b0;fill-opacity:1;stroke:#8892b0;stroke-width:0.00675798;stroke-opacity:1"
       d="m 60.641822,41.525213 c 0,-0.19649 8.65e-4,-0.275901 0.0019,-0.176468 0.0011,0.09944 0.0011,0.260198 -2e-6,0.357255 -0.0011,0.09705 -0.0019,0.01572 -0.0019,-0.180787 z"
       id="path1356" />
  </g>
</svg>
